<svg xmlns="http://www.w3.org/2000/svg" width="1064" height="1267" viewBox="0 0 1064 1267"><g><g><g opacity=".3"><g opacity=".3"/></g><g/><g><path fill="#4af6cd" d="M573.5 1097a6.5 6.5 0 1 0 0-13 6.5 6.5 0 0 0 0 13z"/></g><g><path fill="#4af6cd" d="M661 1134a3 3 0 1 0 0-6 3 3 0 0 0 0 6z"/></g><g><path fill="#4af6cd" d="M725 1242a3 3 0 1 0 0-6 3 3 0 0 0 0 6z"/></g><g><path fill="#4af6cd" d="M365 999a3 3 0 1 0 0-6 3 3 0 0 0 0 6z"/></g><g><path fill="#4af6cd" d="M729.5 862a6.5 6.5 0 1 0 0-13 6.5 6.5 0 0 0 0 13z"/></g><g><g><text dominant-baseline="text-before-edge" style="line-height:19px;font-kerning:normal" fill="#fff" font-family="'Fira Sans','FiraSans-Regular'" font-size="16" transform="translate(385 1078)"><tspan>West Shore </tspan><tspan font-family="FiraSans-Thin">|</tspan><tspan> Malibu, CA</tspan></text></g></g><g><g><text dominant-baseline="text-before-edge" style="line-height:19px;font-kerning:normal" fill="#fff" font-family="'Fira Sans','FiraSans-Regular'" font-size="16" transform="translate(592 843)"><tspan style="line-height:19px;font-kerning:normal">Current Location</tspan></text></g></g></g></g></svg>