<svg xmlns="http://www.w3.org/2000/svg" width="50" height="32" viewBox="0 0 50 32"><g><g><g><path fill="#fff" d="M48.75 24.027c.57.116 1 .617 1 1.212v.988c0 .599-.43 1.098-1 1.214v.025h-6.564c-.364 2.24-2.323 3.958-4.686 3.958s-4.322-1.718-4.683-3.958H15.435c-.363 2.24-2.322 3.958-4.685 3.958-2.363 0-4.324-1.72-4.686-3.958H2.25l-.748.002a1.247 1.247 0 0 1-1.252-1.24v-.987c0-.684.562-1.239 1.252-1.239h.748v-11.13c0-3.412 2.805-6.188 6.252-6.188l5.77-.003V4.707C8.185 4.133 3.03 3.061 1.468 1.517a.733.733 0 0 1-.135-.869.752.752 0 0 1 .797-.386c4.977.881 12.715 1 19.625 1a1029.156 1029.156 0 0 0 5.345-.014h.001c.914-.003 1.8-.006 2.648-.006l6.438.002h.002c4.357 0 7.04-.03 10.521-.197a.758.758 0 0 1 .758.537.74.74 0 0 1-.354.852c-.501.279-1.126.538-1.867.777v1.502a1.7 1.7 0 0 1-.963 1.548 1.773 1.773 0 0 1-.792.191c-.364 0-.725-.115-1.038-.345l-2.42-1.777c-3.081.445-6.898.727-11.284.828v1.526l5.247-.001c3.345 0 6.428 1.107 8.905 2.968l.205.159a14.66 14.66 0 0 1 4.66 6.24l.006.012.014.033c.013.038.028.075.043.112v.001l.037.096.299.767h-.043a14.42 14.42 0 0 1 .627 4.208zm-2.818-8.437a13.23 13.23 0 0 0-3.552-4.453H35a.253.253 0 0 0-.25.248v3.958c0 .133.116.247.25.247zM43.752 3.636c-.516.125-1.069.245-1.659.357l1.258.922c.084.062.168.07.262.023a.23.23 0 0 0 .139-.222zM25.09 2.74c-1.086.003-2.201.006-3.332.006-4.44 0-9.22-.05-13.422-.319 4.035.754 9.838 1.288 16.664 1.288 6.273 0 11.76-.364 15.742-1.003a400.26 400.26 0 0 1-4.55.02h-.003l-6.44-.005c-1.167 0-2.404.004-3.689.01zm-9.319 3.943h11.479v-1.5c-.737.01-1.487.016-2.25.016-3.043 0-6.22-.122-9.229-.36zm-8.271 20.04c0 1.774 1.457 3.216 3.25 3.216S14 28.498 14 26.724c0-1.774-1.457-3.216-3.25-3.216S7.5 24.95 7.5 26.724zm33.25 0c0-1.774-1.457-3.216-3.25-3.216s-3.25 1.442-3.25 3.216c0 1.774 1.457 3.216 3.25 3.216s3.25-1.442 3.25-3.216zm-3.25-4.7c2.363 0 4.324 1.717 4.685 3.958h6.065v-.495h-4.5v-1.485h3.5v-2.719c0-1.473-.25-2.886-.703-4.208H35c-.964 0-1.75-.777-1.75-1.731v-3.959c0-.955.786-1.732 1.75-1.732h5.112a13.294 13.294 0 0 0-6.114-1.484H8.503c-2.62 0-4.751 2.11-4.751 4.702v2.72h7.534v1.484H3.751v6.927h1v1.485h-3v.495h4.314c.363-2.24 2.322-3.959 4.685-3.959 2.364 0 4.325 1.718 4.686 3.959h17.38c.362-2.24 2.321-3.959 4.685-3.959z"/><path fill="none" stroke="#222532" stroke-miterlimit="20" stroke-width=".6" d="M48.75 24.027h0c.57.116 1 .617 1 1.212v.988c0 .599-.43 1.098-1 1.214v.025h-6.564c-.364 2.24-2.323 3.958-4.686 3.958s-4.322-1.718-4.683-3.958H15.435c-.363 2.24-2.322 3.958-4.685 3.958-2.363 0-4.324-1.72-4.686-3.958H2.25l-.748.002a1.247 1.247 0 0 1-1.252-1.24v-.987c0-.684.562-1.239 1.252-1.239h.748v-11.13c0-3.412 2.805-6.188 6.252-6.188l5.77-.003V4.707C8.185 4.133 3.03 3.061 1.468 1.517a.733.733 0 0 1-.135-.869.752.752 0 0 1 .797-.386c4.977.881 12.715 1 19.625 1a1029.156 1029.156 0 0 0 5.345-.014h.001c.914-.003 1.8-.006 2.648-.006l6.438.002h.002c4.357 0 7.04-.03 10.521-.197a.758.758 0 0 1 .758.537.74.74 0 0 1-.354.852c-.501.279-1.126.538-1.867.777v1.502a1.7 1.7 0 0 1-.963 1.548 1.773 1.773 0 0 1-.792.191c-.364 0-.725-.115-1.038-.345l-2.42-1.777c-3.081.445-6.898.727-11.284.828v1.526l5.247-.001c3.345 0 6.428 1.107 8.905 2.968l.205.159a14.66 14.66 0 0 1 4.66 6.24l.006.012.014.033c.013.038.028.075.043.112h0v0h0v.001l.037.096.299.767h-.043a14.42 14.42 0 0 1 .627 4.208zm-2.818-8.437a13.23 13.23 0 0 0-3.552-4.453H35a.253.253 0 0 0-.25.248v3.958c0 .133.116.247.25.247zM43.752 3.636c-.516.125-1.069.245-1.659.357l1.258.922c.084.062.168.07.262.023a.23.23 0 0 0 .139-.222zM25.09 2.74h0c-1.086.003-2.201.006-3.332.006h0c-4.44 0-9.22-.05-13.422-.319 4.035.754 9.838 1.288 16.664 1.288 6.273 0 11.76-.364 15.742-1.003a400.26 400.26 0 0 1-4.55.02h-.003l-6.44-.005c-1.167 0-2.404.004-3.689.01zm-9.319 3.943h11.479v-1.5c-.737.01-1.487.016-2.25.016-3.043 0-6.22-.122-9.229-.36zm-8.271 20.04c0 1.774 1.457 3.216 3.25 3.216S14 28.498 14 26.724c0-1.774-1.457-3.216-3.25-3.216S7.5 24.95 7.5 26.724zm33.25 0c0-1.774-1.457-3.216-3.25-3.216s-3.25 1.442-3.25 3.216c0 1.774 1.457 3.216 3.25 3.216s3.25-1.442 3.25-3.216zm-3.25-4.7c2.363 0 4.324 1.717 4.685 3.958h6.065v-.495h-4.5v-1.485h3.5v-2.719c0-1.473-.25-2.886-.703-4.208H35c-.964 0-1.75-.777-1.75-1.731v-3.959c0-.955.786-1.732 1.75-1.732h5.112a13.294 13.294 0 0 0-6.114-1.484H8.503c-2.62 0-4.751 2.11-4.751 4.702v2.72h7.534v1.484H3.751v6.927h1v1.485h-3v.495h4.314c.363-2.24 2.322-3.959 4.685-3.959 2.364 0 4.325 1.718 4.686 3.959h17.38c.362-2.24 2.321-3.959 4.685-3.959z"/></g><g><path fill="#fff" d="M22.75 15.34c0 .955-.785 1.732-1.75 1.732h-5c-.965 0-1.75-.777-1.75-1.732v-3.958c0-.955.785-1.732 1.75-1.732h5c.965 0 1.75.777 1.75 1.732zm-7 0c0 .135.115.247.25.247h5c.135 0 .25-.114.25-.247v-3.958a.253.253 0 0 0-.25-.248h-5a.253.253 0 0 0-.25.248z"/><path fill="none" stroke="#222532" stroke-miterlimit="20" stroke-width=".6" d="M22.75 15.34c0 .955-.785 1.732-1.75 1.732h-5c-.965 0-1.75-.777-1.75-1.732v-3.958c0-.955.785-1.732 1.75-1.732h5c.965 0 1.75.777 1.75 1.732zm-7 0c0 .135.115.247.25.247h5c.135 0 .25-.114.25-.247v-3.958a.253.253 0 0 0-.25-.248h-5a.253.253 0 0 0-.25.248z"/></g><g><path fill="#fff" d="M30.5 9.65c.965 0 1.75.777 1.75 1.732v3.958c0 .955-.785 1.732-1.75 1.732h-5c-.965 0-1.75-.777-1.75-1.732v-3.958c0-.955.785-1.732 1.75-1.732zm0 5.938c.135 0 .25-.115.25-.248v-3.958a.253.253 0 0 0-.25-.248h-5a.253.253 0 0 0-.25.248v3.958c0 .133.115.247.25.247z"/><path fill="none" stroke="#222532" stroke-miterlimit="20" stroke-width=".6" d="M30.5 9.65c.965 0 1.75.777 1.75 1.732v3.958c0 .955-.785 1.732-1.75 1.732h-5c-.965 0-1.75-.777-1.75-1.732v-3.958c0-.955.785-1.732 1.75-1.732zm0 5.938c.135 0 .25-.115.25-.248v-3.958a.253.253 0 0 0-.25-.248h-5a.253.253 0 0 0-.25.248v3.958c0 .133.115.247.25.247z"/></g><g><path fill="#fff" d="M35.5 26.72c0-1.093.896-1.98 2-1.98 1.103 0 2 .89 2 1.98 0 1.091-.896 1.978-2 1.978-1.103 0-2-.887-2-1.979zm1.5 0c0 .272.225.494.5.494s.5-.222.5-.495a.498.498 0 0 0-.5-.495c-.275 0-.5.223-.5.495z"/><path fill="none" stroke="#222532" stroke-miterlimit="20" stroke-width=".6" d="M35.5 26.72c0-1.093.896-1.98 2-1.98 1.103 0 2 .89 2 1.98 0 1.091-.896 1.978-2 1.978-1.103 0-2-.887-2-1.979zm1.5 0c0 .272.225.494.5.494s.5-.222.5-.495a.498.498 0 0 0-.5-.495c-.275 0-.5.223-.5.495z"/></g><g><path fill="#fff" d="M8.75 26.72c0-1.093.896-1.98 2-1.98 1.103 0 2 .89 2 1.98 0 1.091-.896 1.978-2 1.978-1.103 0-2-.889-2-1.979zm1.5 0c0 .272.225.494.5.494s.5-.222.5-.495a.498.498 0 0 0-.5-.495c-.275 0-.5.223-.5.495z"/><path fill="none" stroke="#222532" stroke-miterlimit="20" stroke-width=".6" d="M8.75 26.72c0-1.093.896-1.98 2-1.98 1.103 0 2 .89 2 1.98 0 1.091-.896 1.978-2 1.978-1.103 0-2-.889-2-1.979zm1.5 0c0 .272.225.494.5.494s.5-.222.5-.495a.498.498 0 0 0-.5-.495c-.275 0-.5.223-.5.495z"/></g><g><path fill="#fff" d="M16.25 24h15.5v1.484h-15.5z"/><path fill="none" stroke="#222532" stroke-miterlimit="20" stroke-width=".6" d="M16.25 24v0h15.5v1.484h-15.5v0z"/></g></g></g></svg>